<?xml version="1.0" encoding="iso-8859-1"?>
<!-- Generator: Adobe Illustrator 19.0.0, SVG Export Plug-In . SVG Version: 6.00 Build 0)  -->
<svg version="1.1" id="Capa_1" xmlns="http://www.w3.org/2000/svg" xmlns:xlink="http://www.w3.org/1999/xlink" x="0px" y="0px"
	 viewBox="0 0 512 512" style="enable-background:new 0 0 512 512;" xml:space="preserve">
<circle style="fill:#FF0435;" cx="256" cy="256" r="256"/>
<path style="fill:#990011;" d="M512,256c0-15.359-1.356-30.4-3.949-45.014L381.52,84.454L214.08,251.895
	c-16.274-5.971-35.275-2.447-48.317,10.595c-1.077,1.077-2.085,2.198-3.032,3.352l-3.3-3.352c-17.893-17.893-47.005-17.893-64.898,0
	c-17.579,17.579-17.887,45.987-0.925,63.946l4.277,4.252c-1.154,0.947-2.274,1.955-3.352,3.032
	c-17.893,17.893-17.893,47.006,0,64.898l107.709,107.709C219.577,510.033,237.558,512,256,512C397.385,512,512,397.385,512,256z"/>
<g>
	
		<rect x="391.126" y="127.796" transform="matrix(-0.7071 0.7071 -0.7071 -0.7071 814.8812 -0.1142)" style="fill:#FF8900;" width="32.677" height="81.829"/>
	
		<rect x="350.285" y="168.632" transform="matrix(-0.7071 0.7071 -0.7071 -0.7071 774.0367 98.476)" style="fill:#FF8900;" width="32.677" height="81.829"/>
</g>
<rect x="290.457" y="62.657" transform="matrix(0.7071 0.7071 -0.7071 0.7071 220.4456 -165.2304)" style="fill:#FFDB2D;" width="38.433" height="241.658"/>
<rect x="306.857" y="69.441" transform="matrix(0.7071 0.7071 -0.7071 0.7071 227.2309 -168.0448)" style="fill:#FDC000;" width="19.213" height="241.658"/>
<path style="fill:#FFE670;" d="M94.532,327.388c1.127,1.127,2.298,2.182,3.508,3.166c-1.21,0.985-2.382,2.04-3.508,3.166
	c-17.893,17.893-17.893,47.006,0,64.898c17.893,17.893,47.006,17.893,64.898,0c1.127-1.127,2.181-2.298,3.166-3.508
	c0.985,1.21,2.039,2.381,3.166,3.508c17.893,17.893,47.005,17.893,64.898,0c17.893-17.892,17.893-47.005,0-64.898
	c-1.127-1.126-2.298-2.181-3.508-3.166c1.21-0.985,2.381-2.04,3.508-3.166c17.893-17.892,17.893-47.005,0-64.898
	s-47.006-17.893-64.898,0c-1.126,1.126-2.181,2.298-3.166,3.508c-0.985-1.21-2.04-2.381-3.166-3.508
	c-17.893-17.893-47.005-17.893-64.898,0C76.64,280.383,76.64,309.496,94.532,327.388z M109.257,383.894
	c-9.773-9.773-9.773-25.675,0-35.448s25.675-9.773,35.449,0s9.773,25.675,0,35.448C134.932,393.667,119.03,393.667,109.257,383.894z
	 M215.936,383.893c-9.773,9.773-25.675,9.773-35.449,0c-9.773-9.773-9.773-25.675,0-35.448s25.675-9.773,35.449,0
	S225.709,374.12,215.936,383.893z M215.936,277.215c9.773,9.773,9.773,25.675,0,35.449c-9.773,9.773-25.675,9.773-35.449,0
	s-9.773-25.675,0-35.449C190.261,267.441,206.163,267.442,215.936,277.215z M144.706,277.215c9.773,9.773,9.773,25.675,0,35.449
	c-9.773,9.773-25.675,9.773-35.449,0s-9.773-25.675,0-35.449C119.031,267.441,134.933,267.442,144.706,277.215z"/>
<path style="fill:#FFDB2D;" d="M215.934,277.217c9.771,9.771,9.779,25.669,0,35.448c-9.771,9.771-25.676,9.771-35.448,0
	l-35.779,35.779c9.771,9.771,9.771,25.676,0,35.448c-9.779,9.779-25.676,9.771-35.448,0l-14.727,14.727
	c17.893,17.893,47.008,17.893,64.901,0c1.127-1.127,2.18-2.298,3.166-3.505c0.987,1.208,2.04,2.378,3.166,3.505
	c17.893,17.893,47.008,17.893,64.901,0c17.886-17.886,17.886-47.001-0.007-64.894c-1.127-1.127-2.297-2.18-3.505-3.166
	c1.208-0.987,2.379-2.04,3.505-3.166c13.048-13.048,16.575-32.053,10.603-48.334c-2.216-6.045-5.758-11.723-10.603-16.568
	L215.934,277.217z M215.941,383.891c-9.779,9.779-25.684,9.779-35.455,0.007c-9.779-9.779-9.771-25.676,0.007-35.455
	c9.771-9.771,25.669-9.779,35.448,0C225.712,358.215,225.712,374.12,215.941,383.891z"/>
<g>
</g>
<g>
</g>
<g>
</g>
<g>
</g>
<g>
</g>
<g>
</g>
<g>
</g>
<g>
</g>
<g>
</g>
<g>
</g>
<g>
</g>
<g>
</g>
<g>
</g>
<g>
</g>
<g>
</g>
</svg>
