<?xml version="1.0" encoding="iso-8859-1"?>
<!-- Generator: Adobe Illustrator 19.0.0, SVG Export Plug-In . SVG Version: 6.00 Build 0)  -->
<svg version="1.1" id="Capa_1" xmlns="http://www.w3.org/2000/svg" xmlns:xlink="http://www.w3.org/1999/xlink" x="0px" y="0px"
	 viewBox="0 0 512 512" style="enable-background:new 0 0 512 512;" xml:space="preserve">
<circle style="fill:#B6EFAB;" cx="256" cy="256" r="256"/>
<path style="fill:#5EDE4E;" d="M512,256c0-9.669-0.555-19.208-1.599-28.599L344,61H168c0,0,3.087,76.085,30.911,119.892h-0.001
	v24.886h0.003C174.387,223.765,123.537,268.941,119,337c-2.529,37.934,7.738,64.21,27.145,81.729l92.684,92.684
	C244.506,511.79,250.228,512,256,512C397.385,512,512,397.385,512,256z"/>
<path style="fill:#FF8C00;" d="M393,337c-6-90-93-140-93-140c40-37.29,44-136,44-136H168c0,0,4,98.71,44,136c0,0-87,50-93,140
	c-5.721,85.81,54,112,137,112S398.721,422.81,393,337z"/>
<path style="fill:#C06200;" d="M256,449V61h88c0,0-3.08,76.08-30.9,119.89c-3.87,6.09-8.22,11.56-13.1,16.11
	c0,0,5.18,2.97,13.09,8.78C337.62,223.77,388.46,268.95,393,337C398.72,422.81,339,449,256,449z"/>
<rect x="198.91" y="180.89" style="fill:#FFFFFF;" width="114.19" height="24.886"/>
<rect x="256" y="180.89" style="fill:#54FBFF;" width="57.1" height="24.89"/>
<circle style="fill:#FFC473;" cx="256" cy="324.83" r="80.17"/>
<path style="fill:#FFAA20;" d="M336.17,324.83c0,44.28-35.9,80.17-80.17,80.17V244.67C300.27,244.67,336.17,280.56,336.17,324.83z"
	/>
<g>
</g>
<g>
</g>
<g>
</g>
<g>
</g>
<g>
</g>
<g>
</g>
<g>
</g>
<g>
</g>
<g>
</g>
<g>
</g>
<g>
</g>
<g>
</g>
<g>
</g>
<g>
</g>
<g>
</g>
</svg>
