<?xml version="1.0" encoding="iso-8859-1"?>
<!-- Generator: Adobe Illustrator 19.0.0, SVG Export Plug-In . SVG Version: 6.00 Build 0)  -->
<svg version="1.1" id="Capa_1" xmlns="http://www.w3.org/2000/svg" xmlns:xlink="http://www.w3.org/1999/xlink" x="0px" y="0px"
	 viewBox="0 0 512 512" style="enable-background:new 0 0 512 512;" xml:space="preserve">
<circle style="fill:#e65525;" cx="256" cy="256" r="256"/>
<path style="fill:#a34121;" d="M512,256c0-17.164-1.703-33.929-4.924-50.148L398.445,97.221h-284.89v117.726H92.508v190.686
	l97.86,97.859C211.316,509.034,233.31,512,256,512C397.385,512,512,397.385,512,256z"/>
<rect x="113.56" y="97.22" style="fill:#E67500;" width="284.89" height="165.88"/>
<rect x="256" y="97.22" style="fill:#9A4C00;" width="142.44" height="165.88"/>
<rect x="136.37" y="121.42" style="fill:#FF9A00;" width="239.26" height="122.82"/>
<rect x="256" y="121.42" style="fill:#E67500;" width="119.63" height="122.82"/>
<rect x="103.03" y="220.62" style="fill:#FF9A00;" width="305.94" height="174.49"/>
<g>
	<rect x="256" y="220.62" style="fill:#E67500;" width="152.97" height="174.49"/>
	<rect x="101.16" y="287.07" style="fill:#E67500;" width="309.68" height="53.95"/>
</g>
<rect x="256" y="287.07" style="fill:#9A4C00;" width="154.84" height="53.95"/>
<path style="fill:#FFCF00;" d="M92.508,214.947v190.686h326.983V214.947H92.508z M398.445,384.596h-284.89V235.994h112.572v22.228
	c0,16.5,13.373,29.883,29.873,29.883c8.255,0,15.718-3.346,21.123-8.75c5.405-5.414,8.75-12.878,8.75-21.132v-22.228h112.572
	L398.445,384.596L398.445,384.596z"/>
<path style="fill:#FFFFFF;" d="M92.509,362L92.509,362v43.634h43.633l0,0C136.142,381.535,116.607,362,92.509,362z"/>
<path style="fill:#FFAA20;" d="M256,214.95v73.15c8.25,0,15.72-3.34,21.12-8.75c5.41-5.41,8.75-12.87,8.75-21.13v-22.23h112.57
	V384.6H256v21.03h163.49V214.95H256z"/>
<path style="fill:#FFEC97;" d="M419.49,362L419.49,362v43.634h-43.633l0,0C375.857,381.535,395.392,362,419.49,362z"/>
<path style="fill:#E67500;" d="M268.654,243.557c0-6.989-5.665-12.654-12.654-12.654s-12.654,5.665-12.654,12.654
	c0,4.618,2.482,8.646,6.176,10.856v15.963h12.955v-15.963C266.172,252.203,268.654,248.175,268.654,243.557z"/>
<path style="fill:#9A4C00;" d="M268.65,243.56c0,0.23-0.01,0.45-0.02,0.68c-0.23,4.32-2.64,8.07-6.15,10.17v15.97H256V230.9
	C262.99,230.9,268.65,236.57,268.65,243.56z"/>
<g>
</g>
<g>
</g>
<g>
</g>
<g>
</g>
<g>
</g>
<g>
</g>
<g>
</g>
<g>
</g>
<g>
</g>
<g>
</g>
<g>
</g>
<g>
</g>
<g>
</g>
<g>
</g>
<g>
</g>
</svg>
